<?xml version="1.0" ?><svg data-name="Layer 1" id="Layer_1" viewBox="0 0 64 64" xmlns="http://www.w3.org/2000/svg"><defs><style>.cls-1{fill:#ebeef2;}.cls-2{fill:#09816c;}.cls-3{fill:#cad0d8;}.cls-4{fill:#4fbe9f;}.cls-5{fill:#dcdfe2;}</style></defs><title/><path class="cls-1" d="M21.19,32.2A10.69,10.69,0,1,1,31.88,42.88,10.69,10.69,0,0,1,21.19,32.2Z"/><path class="cls-2" d="M31.88,42.88a10.69,10.69,0,0,1-9.1-5.09l-.07-.11-.08-.15-.24-.42c-1.56-2.83-8.53-15.43-10.28-18.46a24.53,24.53,0,0,0-.95,25.49C18.78,56.21,30.32,56,30.32,56s9.16-15.53,10.94-18.68h0A10.69,10.69,0,0,1,31.88,42.88Z"/><path class="cls-3" d="M53.5,21.53s-18.44-.06-22,0l.06,0,.37,0a10.68,10.68,0,0,1,9.38,15.8h0s-9,15.23-11,18.66A24.55,24.55,0,0,0,52.81,44.05C59.46,31.41,53.5,21.53,53.5,21.53Z"/><path class="cls-4" d="M21.19,32.2a10.59,10.59,0,0,1,1.57-5.55h0a10.64,10.64,0,0,1,8.59-5.11c.34,0,.53,0,.53,0l21.67,0A24.56,24.56,0,0,0,31.94,8c-14.27.57-19.85,10.67-19.85,10.67s8.29,15,10.12,18.09a.43.43,0,0,0,0,0A10.68,10.68,0,0,1,21.19,32.2Z"/><path class="cls-5" d="M23,32.2a8.9,8.9,0,1,1,8.9,8.9A8.89,8.89,0,0,1,23,32.2Z"/></svg>